<?xml version="1.0" standalone="no"?>
<svg xmlns="http://www.w3.org/2000/svg" width="500" height="500"><defs><clipPath id="clip-path-dot-color"><circle cx="26" cy="202" r="8" transform="rotate(0,26,202)"/><circle cx="26" cy="250" r="8" transform="rotate(0,26,250)"/><path d="M 18 306v 16h 8a 8 8, 0, 0, 0, 0 -16" transform="rotate(-90,26,314)"/><rect x="18" y="322" width="16" height="16" transform="rotate(0,26,330)"/><path d="M 18 338v 16h 8a 8 8, 0, 0, 0, 0 -16" transform="rotate(90,26,346)"/><path d="M 34 146v 16h 8a 8 8, 0, 0, 0, 0 -16" transform="rotate(-90,42,154)"/><path d="M 34 162v 16h 16v -8a 8 8, 0, 0, 0, -8 -8" transform="rotate(180,42,170)"/><circle cx="42" cy="234" r="8" transform="rotate(0,42,234)"/><path d="M 34 258v 16h 16v -8a 8 8, 0, 0, 0, -8 -8" transform="rotate(-90,42,266)"/><rect x="34" y="274" width="16" height="16" transform="rotate(0,42,282)"/><path d="M 34 290v 16h 8a 8 8, 0, 0, 0, 0 -16" transform="rotate(90,42,298)"/><rect x="34" y="322" width="16" height="16" transform="rotate(0,42,330)"/><path d="M 50 162v 16h 8a 8 8, 0, 0, 0, 0 -16" transform="rotate(0,58,170)"/><path d="M 50 210v 16h 8a 8 8, 0, 0, 0, 0 -16" transform="rotate(180,58,218)"/><path d="M 50 258v 16h 8a 8 8, 0, 0, 0, 0 -16" transform="rotate(0,58,266)"/><path d="M 50 306v 16h 8a 8 8, 0, 0, 0, 0 -16" transform="rotate(-90,58,314)"/><rect x="50" y="322" width="16" height="16" transform="rotate(0,58,330)"/><path d="M 50 338v 16h 16v -8a 8 8, 0, 0, 0, -8 -8" transform="rotate(180,58,346)"/><path d="M 66 146v 16h 8a 8 8, 0, 0, 0, 0 -16" transform="rotate(180,74,154)"/><path d="M 66 178v 16h 16v -8a 8 8, 0, 0, 0, -8 -8" transform="rotate(-90,74,186)"/><rect x="66" y="194" width="16" height="16" transform="rotate(0,74,202)"/><rect x="66" y="210" width="16" height="16" transform="rotate(0,74,218)"/><path d="M 66 226v 16h 8a 8 8, 0, 0, 0, 0 -16" transform="rotate(90,74,234)"/><circle cx="74" cy="298" r="8" transform="rotate(0,74,298)"/><rect x="66" y="322" width="16" height="16" transform="rotate(0,74,330)"/><path d="M 66 338v 16h 16v -8a 8 8, 0, 0, 0, -8 -8" transform="rotate(90,74,346)"/><path d="M 82 146v 16h 16v -8a 8 8, 0, 0, 0, -8 -8" transform="rotate(0,90,154)"/><rect x="82" y="162" width="16" height="16" transform="rotate(0,90,170)"/><path d="M 82 178v 16h 16v -8a 8 8, 0, 0, 0, -8 -8" transform="rotate(90,90,186)"/><rect x="82" y="210" width="16" height="16" transform="rotate(0,90,218)"/><path d="M 82 242v 16h 8a 8 8, 0, 0, 0, 0 -16" transform="rotate(-90,90,250)"/><path d="M 82 258v 16h 16v -8a 8 8, 0, 0, 0, -8 -8" transform="rotate(180,90,266)"/><path d="M 82 306v 16h 8a 8 8, 0, 0, 0, 0 -16" transform="rotate(-90,90,314)"/><path d="M 82 322v 16h 16v -8a 8 8, 0, 0, 0, -8 -8" transform="rotate(90,90,330)"/><path d="M 98 194v 16h 8a 8 8, 0, 0, 0, 0 -16" transform="rotate(-90,106,202)"/><rect x="98" y="210" width="16" height="16" transform="rotate(0,106,218)"/><path d="M 98 226v 16h 8a 8 8, 0, 0, 0, 0 -16" transform="rotate(90,106,234)"/><path d="M 98 258v 16h 8a 8 8, 0, 0, 0, 0 -16" transform="rotate(0,106,266)"/><path d="M 98 338v 16h 8a 8 8, 0, 0, 0, 0 -16" transform="rotate(180,106,346)"/><path d="M 114 146v 16h 8a 8 8, 0, 0, 0, 0 -16" transform="rotate(180,122,154)"/><circle cx="122" cy="186" r="8" transform="rotate(0,122,186)"/><path d="M 114 210v 16h 8a 8 8, 0, 0, 0, 0 -16" transform="rotate(0,122,218)"/><path d="M 114 242v 16h 8a 8 8, 0, 0, 0, 0 -16" transform="rotate(180,122,250)"/><path d="M 114 274v 16h 8a 8 8, 0, 0, 0, 0 -16" transform="rotate(180,122,282)"/><path d="M 114 306v 16h 8a 8 8, 0, 0, 0, 0 -16" transform="rotate(180,122,314)"/><rect x="114" y="338" width="16" height="16" transform="rotate(0,122,346)"/><rect x="130" y="146" width="16" height="16" transform="rotate(0,138,154)"/><path d="M 130 242v 16h 16v -8a 8 8, 0, 0, 0, -8 -8" transform="rotate(0,138,250)"/><rect x="130" y="258" width="16" height="16" transform="rotate(0,138,266)"/><rect x="130" y="274" width="16" height="16" transform="rotate(0,138,282)"/><rect x="130" y="290" width="16" height="16" transform="rotate(0,138,298)"/><rect x="130" y="306" width="16" height="16" transform="rotate(0,138,314)"/><rect x="130" y="322" width="16" height="16" transform="rotate(0,138,330)"/><path d="M 130 338v 16h 16v -8a 8 8, 0, 0, 0, -8 -8" transform="rotate(90,138,346)"/><circle cx="154" cy="42" r="8" transform="rotate(0,154,42)"/><path d="M 146 66v 16h 16v -8a 8 8, 0, 0, 0, -8 -8" transform="rotate(-90,154,74)"/><rect x="146" y="82" width="16" height="16" transform="rotate(0,154,90)"/><rect x="146" y="98" width="16" height="16" transform="rotate(0,154,106)"/><path d="M 146 114v 16h 8a 8 8, 0, 0, 0, 0 -16" transform="rotate(90,154,122)"/><path d="M 146 146v 16h 16v -8a 8 8, 0, 0, 0, -8 -8" transform="rotate(0,154,154)"/><path d="M 146 162v 16h 8a 8 8, 0, 0, 0, 0 -16" transform="rotate(90,154,170)"/><path d="M 146 194v 16h 16v -8a 8 8, 0, 0, 0, -8 -8" transform="rotate(-90,154,202)"/><rect x="146" y="210" width="16" height="16" transform="rotate(0,154,218)"/><path d="M 146 226v 16h 8a 8 8, 0, 0, 0, 0 -16" transform="rotate(90,154,234)"/><path d="M 146 354v 16h 16v -8a 8 8, 0, 0, 0, -8 -8" transform="rotate(-90,154,362)"/><path d="M 146 370v 16h 8a 8 8, 0, 0, 0, 0 -16" transform="rotate(90,154,378)"/><path d="M 146 402v 16h 16v -8a 8 8, 0, 0, 0, -8 -8" transform="rotate(-90,154,410)"/><path d="M 146 418v 16h 16v -8a 8 8, 0, 0, 0, -8 -8" transform="rotate(180,154,426)"/><path d="M 146 450v 16h 8a 8 8, 0, 0, 0, 0 -16" transform="rotate(180,154,458)"/><path d="M 162 50v 16h 8a 8 8, 0, 0, 0, 0 -16" transform="rotate(-90,170,58)"/><rect x="162" y="66" width="16" height="16" transform="rotate(0,170,74)"/><rect x="162" y="82" width="16" height="16" transform="rotate(0,170,90)"/><rect x="162" y="98" width="16" height="16" transform="rotate(0,170,106)"/><circle cx="170" cy="138" r="8" transform="rotate(0,170,138)"/><path d="M 162 178v 16h 8a 8 8, 0, 0, 0, 0 -16" transform="rotate(-90,170,186)"/><rect x="162" y="194" width="16" height="16" transform="rotate(0,170,202)"/><path d="M 162 242v 16h 16v -8a 8 8, 0, 0, 0, -8 -8" transform="rotate(-90,170,250)"/><path d="M 162 258v 16h 16v -8a 8 8, 0, 0, 0, -8 -8" transform="rotate(180,170,266)"/><path d="M 162 290v 16h 8a 8 8, 0, 0, 0, 0 -16" transform="rotate(-90,170,298)"/><rect x="162" y="306" width="16" height="16" transform="rotate(0,170,314)"/><path d="M 162 322v 16h 8a 8 8, 0, 0, 0, 0 -16" transform="rotate(90,170,330)"/><rect x="162" y="354" width="16" height="16" transform="rotate(0,170,362)"/><path d="M 162 386v 16h 16v -8a 8 8, 0, 0, 0, -8 -8" transform="rotate(-90,170,394)"/><rect x="162" y="402" width="16" height="16" transform="rotate(0,170,410)"/><rect x="162" y="418" width="16" height="16" transform="rotate(0,170,426)"/><rect x="162" y="434" width="16" height="16" transform="rotate(0,170,442)"/><path d="M 162 450v 16h 16v -8a 8 8, 0, 0, 0, -8 -8" transform="rotate(90,170,458)"/><path d="M 178 34v 16h 8a 8 8, 0, 0, 0, 0 -16" transform="rotate(180,186,42)"/><rect x="178" y="66" width="16" height="16" transform="rotate(0,186,74)"/><path d="M 178 98v 16h 16v -8a 8 8, 0, 0, 0, -8 -8" transform="rotate(0,186,106)"/><path d="M 178 114v 16h 8a 8 8, 0, 0, 0, 0 -16" transform="rotate(90,186,122)"/><path d="M 178 162v 16h 8a 8 8, 0, 0, 0, 0 -16" transform="rotate(180,186,170)"/><path d="M 178 194v 16h 8a 8 8, 0, 0, 0, 0 -16" transform="rotate(0,186,202)"/><rect x="178" y="242" width="16" height="16" transform="rotate(0,186,250)"/><rect x="178" y="258" width="16" height="16" transform="rotate(0,186,266)"/><path d="M 178 274v 16h 16v -8a 8 8, 0, 0, 0, -8 -8" transform="rotate(180,186,282)"/><path d="M 178 306v 16h 8a 8 8, 0, 0, 0, 0 -16" transform="rotate(0,186,314)"/><path d="M 178 354v 16h 16v -8a 8 8, 0, 0, 0, -8 -8" transform="rotate(0,186,362)"/><rect x="178" y="370" width="16" height="16" transform="rotate(0,186,378)"/><rect x="178" y="386" width="16" height="16" transform="rotate(0,186,394)"/><rect x="178" y="402" width="16" height="16" transform="rotate(0,186,410)"/><rect x="178" y="418" width="16" height="16" transform="rotate(0,186,426)"/><path d="M 178 434v 16h 16v -8a 8 8, 0, 0, 0, -8 -8" transform="rotate(90,186,442)"/><path d="M 194 18v 16h 16v -8a 8 8, 0, 0, 0, -8 -8" transform="rotate(-90,202,26)"/><rect x="194" y="34" width="16" height="16" transform="rotate(0,202,42)"/><rect x="194" y="50" width="16" height="16" transform="rotate(0,202,58)"/><rect x="194" y="66" width="16" height="16" transform="rotate(0,202,74)"/><path d="M 194 82v 16h 8a 8 8, 0, 0, 0, 0 -16" transform="rotate(90,202,90)"/><path d="M 194 130v 16h 8a 8 8, 0, 0, 0, 0 -16" transform="rotate(-90,202,138)"/><rect x="194" y="146" width="16" height="16" transform="rotate(0,202,154)"/><rect x="194" y="162" width="16" height="16" transform="rotate(0,202,170)"/><rect x="194" y="242" width="16" height="16" transform="rotate(0,202,250)"/><rect x="194" y="258" width="16" height="16" transform="rotate(0,202,266)"/><rect x="194" y="274" width="16" height="16" transform="rotate(0,202,282)"/><path d="M 194 290v 16h 8a 8 8, 0, 0, 0, 0 -16" transform="rotate(90,202,298)"/><path d="M 194 322v 16h 8a 8 8, 0, 0, 0, 0 -16" transform="rotate(-90,202,330)"/><path d="M 194 338v 16h 16v -8a 8 8, 0, 0, 0, -8 -8" transform="rotate(180,202,346)"/><rect x="194" y="418" width="16" height="16" transform="rotate(0,202,426)"/><circle cx="202" cy="474" r="8" transform="rotate(0,202,474)"/><path d="M 210 18v 16h 8a 8 8, 0, 0, 0, 0 -16" transform="rotate(0,218,26)"/><path d="M 210 98v 16h 8a 8 8, 0, 0, 0, 0 -16" transform="rotate(-90,218,106)"/><path d="M 210 114v 16h 8a 8 8, 0, 0, 0, 0 -16" transform="rotate(90,218,122)"/><rect x="210" y="146" width="16" height="16" transform="rotate(0,218,154)"/><rect x="210" y="162" width="16" height="16" transform="rotate(0,218,170)"/><rect x="210" y="178" width="16" height="16" transform="rotate(0,218,186)"/><path d="M 210 194v 16h 16v -8a 8 8, 0, 0, 0, -8 -8" transform="rotate(180,218,202)"/><path d="M 210 226v 16h 16v -8a 8 8, 0, 0, 0, -8 -8" transform="rotate(-90,218,234)"/><rect x="210" y="242" width="16" height="16" transform="rotate(0,218,250)"/><rect x="210" y="258" width="16" height="16" transform="rotate(0,218,266)"/><path d="M 210 338v 16h 16v -8a 8 8, 0, 0, 0, -8 -8" transform="rotate(0,218,346)"/><rect x="210" y="354" width="16" height="16" transform="rotate(0,218,362)"/><path d="M 210 370v 16h 16v -8a 8 8, 0, 0, 0, -8 -8" transform="rotate(180,218,378)"/><path d="M 210 418v 16h 8a 8 8, 0, 0, 0, 0 -16" transform="rotate(0,218,426)"/><circle cx="218" cy="458" r="8" transform="rotate(0,218,458)"/><path d="M 226 50v 16h 8a 8 8, 0, 0, 0, 0 -16" transform="rotate(180,234,58)"/><rect x="226" y="146" width="16" height="16" transform="rotate(0,234,154)"/><rect x="226" y="162" width="16" height="16" transform="rotate(0,234,170)"/><path d="M 226 194v 16h 16v -8a 8 8, 0, 0, 0, -8 -8" transform="rotate(0,234,202)"/><rect x="226" y="210" width="16" height="16" transform="rotate(0,234,218)"/><rect x="226" y="226" width="16" height="16" transform="rotate(0,234,234)"/><rect x="226" y="242" width="16" height="16" transform="rotate(0,234,250)"/><rect x="226" y="258" width="16" height="16" transform="rotate(0,234,266)"/><path d="M 226 274v 16h 8a 8 8, 0, 0, 0, 0 -16" transform="rotate(90,234,282)"/><rect x="226" y="370" width="16" height="16" transform="rotate(0,234,378)"/><circle cx="234" cy="410" r="8" transform="rotate(0,234,410)"/><circle cx="234" cy="442" r="8" transform="rotate(0,234,442)"/><path d="M 226 466v 16h 8a 8 8, 0, 0, 0, 0 -16" transform="rotate(180,234,474)"/><path d="M 242 34v 16h 8a 8 8, 0, 0, 0, 0 -16" transform="rotate(-90,250,42)"/><path d="M 242 50v 16h 16v -8a 8 8, 0, 0, 0, -8 -8" transform="rotate(90,250,58)"/><path d="M 242 82v 16h 8a 8 8, 0, 0, 0, 0 -16" transform="rotate(-90,250,90)"/><rect x="242" y="98" width="16" height="16" transform="rotate(0,250,106)"/><rect x="242" y="114" width="16" height="16" transform="rotate(0,250,122)"/><rect x="242" y="130" width="16" height="16" transform="rotate(0,250,138)"/><rect x="242" y="146" width="16" height="16" transform="rotate(0,250,154)"/><rect x="242" y="162" width="16" height="16" transform="rotate(0,250,170)"/><rect x="242" y="258" width="16" height="16" transform="rotate(0,250,266)"/><path d="M 242 306v 16h 8a 8 8, 0, 0, 0, 0 -16" transform="rotate(-90,250,314)"/><path d="M 242 322v 16h 8a 8 8, 0, 0, 0, 0 -16" transform="rotate(90,250,330)"/><rect x="242" y="370" width="16" height="16" transform="rotate(0,250,378)"/><path d="M 242 386v 16h 8a 8 8, 0, 0, 0, 0 -16" transform="rotate(90,250,394)"/><path d="M 242 418v 16h 8a 8 8, 0, 0, 0, 0 -16" transform="rotate(180,250,426)"/><path d="M 242 466v 16h 8a 8 8, 0, 0, 0, 0 -16" transform="rotate(0,250,474)"/><circle cx="266" cy="26" r="8" transform="rotate(0,266,26)"/><rect x="258" y="98" width="16" height="16" transform="rotate(0,266,106)"/><path d="M 258 130v 16h 16v -8a 8 8, 0, 0, 0, -8 -8" transform="rotate(0,266,138)"/><rect x="258" y="146" width="16" height="16" transform="rotate(0,266,154)"/><rect x="258" y="162" width="16" height="16" transform="rotate(0,266,170)"/><rect x="258" y="178" width="16" height="16" transform="rotate(0,266,186)"/><rect x="258" y="194" width="16" height="16" transform="rotate(0,266,202)"/><rect x="258" y="210" width="16" height="16" transform="rotate(0,266,218)"/><path d="M 258 226v 16h 8a 8 8, 0, 0, 0, 0 -16" transform="rotate(90,266,234)"/><path d="M 258 258v 16h 8a 8 8, 0, 0, 0, 0 -16" transform="rotate(0,266,266)"/><path d="M 258 354v 16h 16v -8a 8 8, 0, 0, 0, -8 -8" transform="rotate(-90,266,362)"/><path d="M 258 370v 16h 16v -8a 8 8, 0, 0, 0, -8 -8" transform="rotate(90,266,378)"/><path d="M 258 402v 16h 8a 8 8, 0, 0, 0, 0 -16" transform="rotate(-90,266,410)"/><rect x="258" y="418" width="16" height="16" transform="rotate(0,266,426)"/><path d="M 258 434v 16h 8a 8 8, 0, 0, 0, 0 -16" transform="rotate(90,266,442)"/><path d="M 274 50v 16h 16v -8a 8 8, 0, 0, 0, -8 -8" transform="rotate(-90,282,58)"/><rect x="274" y="66" width="16" height="16" transform="rotate(0,282,74)"/><rect x="274" y="82" width="16" height="16" transform="rotate(0,282,90)"/><rect x="274" y="98" width="16" height="16" transform="rotate(0,282,106)"/><path d="M 274 114v 16h 8a 8 8, 0, 0, 0, 0 -16" transform="rotate(90,282,122)"/><path d="M 274 162v 16h 8a 8 8, 0, 0, 0, 0 -16" transform="rotate(0,282,170)"/><rect x="274" y="194" width="16" height="16" transform="rotate(0,282,202)"/><path d="M 274 242v 16h 8a 8 8, 0, 0, 0, 0 -16" transform="rotate(180,282,250)"/><path d="M 274 290v 16h 16v -8a 8 8, 0, 0, 0, -8 -8" transform="rotate(-90,282,298)"/><rect x="274" y="306" width="16" height="16" transform="rotate(0,282,314)"/><rect x="274" y="322" width="16" height="16" transform="rotate(0,282,330)"/><rect x="274" y="338" width="16" height="16" transform="rotate(0,282,346)"/><path d="M 274 354v 16h 16v -8a 8 8, 0, 0, 0, -8 -8" transform="rotate(90,282,362)"/><circle cx="282" cy="394" r="8" transform="rotate(0,282,394)"/><rect x="274" y="418" width="16" height="16" transform="rotate(0,282,426)"/><path d="M 290 18v 16h 16v -8a 8 8, 0, 0, 0, -8 -8" transform="rotate(-90,298,26)"/><rect x="290" y="34" width="16" height="16" transform="rotate(0,298,42)"/><rect x="290" y="50" width="16" height="16" transform="rotate(0,298,58)"/><rect x="290" y="66" width="16" height="16" transform="rotate(0,298,74)"/><rect x="290" y="82" width="16" height="16" transform="rotate(0,298,90)"/><circle cx="298" cy="138" r="8" transform="rotate(0,298,138)"/><path d="M 290 194v 16h 16v -8a 8 8, 0, 0, 0, -8 -8" transform="rotate(0,298,202)"/><rect x="290" y="210" width="16" height="16" transform="rotate(0,298,218)"/><rect x="290" y="226" width="16" height="16" transform="rotate(0,298,234)"/><rect x="290" y="242" width="16" height="16" transform="rotate(0,298,250)"/><path d="M 290 290v 16h 8a 8 8, 0, 0, 0, 0 -16" transform="rotate(0,298,298)"/><rect x="290" y="322" width="16" height="16" transform="rotate(0,298,330)"/><path d="M 290 338v 16h 16v -8a 8 8, 0, 0, 0, -8 -8" transform="rotate(90,298,346)"/><path d="M 290 402v 16h 8a 8 8, 0, 0, 0, 0 -16" transform="rotate(-90,298,410)"/><rect x="290" y="418" width="16" height="16" transform="rotate(0,298,426)"/><path d="M 290 434v 16h 8a 8 8, 0, 0, 0, 0 -16" transform="rotate(90,298,442)"/><rect x="306" y="18" width="16" height="16" transform="rotate(0,314,26)"/><rect x="306" y="34" width="16" height="16" transform="rotate(0,314,42)"/><rect x="306" y="50" width="16" height="16" transform="rotate(0,314,58)"/><rect x="306" y="66" width="16" height="16" transform="rotate(0,314,74)"/><path d="M 306 82v 16h 16v -8a 8 8, 0, 0, 0, -8 -8" transform="rotate(90,314,90)"/><circle cx="314" cy="122" r="8" transform="rotate(0,314,122)"/><circle cx="314" cy="170" r="8" transform="rotate(0,314,170)"/><path d="M 306 242v 16h 8a 8 8, 0, 0, 0, 0 -16" transform="rotate(0,314,250)"/><path d="M 306 274v 16h 8a 8 8, 0, 0, 0, 0 -16" transform="rotate(180,314,282)"/><path d="M 306 306v 16h 8a 8 8, 0, 0, 0, 0 -16" transform="rotate(-90,314,314)"/><path d="M 306 322v 16h 16v -8a 8 8, 0, 0, 0, -8 -8" transform="rotate(90,314,330)"/><path d="M 306 418v 16h 8a 8 8, 0, 0, 0, 0 -16" transform="rotate(0,314,426)"/><path d="M 306 466v 16h 8a 8 8, 0, 0, 0, 0 -16" transform="rotate(180,314,474)"/><rect x="322" y="18" width="16" height="16" transform="rotate(0,330,26)"/><rect x="322" y="34" width="16" height="16" transform="rotate(0,330,42)"/><path d="M 322 98v 16h 8a 8 8, 0, 0, 0, 0 -16" transform="rotate(180,330,106)"/><path d="M 322 130v 16h 16v -8a 8 8, 0, 0, 0, -8 -8" transform="rotate(-90,330,138)"/><path d="M 322 146v 16h 16v -8a 8 8, 0, 0, 0, -8 -8" transform="rotate(180,330,154)"/><circle cx="330" cy="202" r="8" transform="rotate(0,330,202)"/><path d="M 322 258v 16h 8a 8 8, 0, 0, 0, 0 -16" transform="rotate(-90,330,266)"/><rect x="322" y="274" width="16" height="16" transform="rotate(0,330,282)"/><path d="M 322 338v 16h 16v -8a 8 8, 0, 0, 0, -8 -8" transform="rotate(-90,330,346)"/><rect x="322" y="354" width="16" height="16" transform="rotate(0,330,362)"/><path d="M 322 370v 16h 16v -8a 8 8, 0, 0, 0, -8 -8" transform="rotate(180,330,378)"/><path d="M 322 402v 16h 8a 8 8, 0, 0, 0, 0 -16" transform="rotate(180,330,410)"/><path d="M 322 434v 16h 16v -8a 8 8, 0, 0, 0, -8 -8" transform="rotate(-90,330,442)"/><rect x="322" y="450" width="16" height="16" transform="rotate(0,330,458)"/><path d="M 322 466v 16h 16v -8a 8 8, 0, 0, 0, -8 -8" transform="rotate(90,330,474)"/><path d="M 338 18v 16h 16v -8a 8 8, 0, 0, 0, -8 -8" transform="rotate(0,346,26)"/><path d="M 338 34v 16h 16v -8a 8 8, 0, 0, 0, -8 -8" transform="rotate(90,346,42)"/><path d="M 338 98v 16h 16v -8a 8 8, 0, 0, 0, -8 -8" transform="rotate(0,346,106)"/><rect x="338" y="114" width="16" height="16" transform="rotate(0,346,122)"/><rect x="338" y="130" width="16" height="16" transform="rotate(0,346,138)"/><rect x="338" y="146" width="16" height="16" transform="rotate(0,346,154)"/><path d="M 338 162v 16h 16v -8a 8 8, 0, 0, 0, -8 -8" transform="rotate(180,346,170)"/><path d="M 338 210v 16h 16v -8a 8 8, 0, 0, 0, -8 -8" transform="rotate(-90,346,218)"/><path d="M 338 226v 16h 16v -8a 8 8, 0, 0, 0, -8 -8" transform="rotate(180,346,234)"/><path d="M 338 274v 16h 16v -8a 8 8, 0, 0, 0, -8 -8" transform="rotate(0,346,282)"/><rect x="338" y="290" width="16" height="16" transform="rotate(0,346,298)"/><rect x="338" y="306" width="16" height="16" transform="rotate(0,346,314)"/><rect x="338" y="322" width="16" height="16" transform="rotate(0,346,330)"/><rect x="338" y="338" width="16" height="16" transform="rotate(0,346,346)"/><rect x="338" y="354" width="16" height="16" transform="rotate(0,346,362)"/><rect x="338" y="370" width="16" height="16" transform="rotate(0,346,378)"/><rect x="338" y="386" width="16" height="16" transform="rotate(0,346,394)"/><rect x="338" y="402" width="16" height="16" transform="rotate(0,346,410)"/><rect x="338" y="434" width="16" height="16" transform="rotate(0,346,442)"/><rect x="338" y="450" width="16" height="16" transform="rotate(0,346,458)"/><path d="M 354 146v 16h 16v -8a 8 8, 0, 0, 0, -8 -8" transform="rotate(0,362,154)"/><path d="M 354 162v 16h 16v -8a 8 8, 0, 0, 0, -8 -8" transform="rotate(90,362,170)"/><rect x="354" y="210" width="16" height="16" transform="rotate(0,362,218)"/><rect x="354" y="226" width="16" height="16" transform="rotate(0,362,234)"/><rect x="354" y="242" width="16" height="16" transform="rotate(0,362,250)"/><path d="M 354 258v 16h 16v -8a 8 8, 0, 0, 0, -8 -8" transform="rotate(180,362,266)"/><path d="M 354 290v 16h 16v -8a 8 8, 0, 0, 0, -8 -8" transform="rotate(0,362,298)"/><path d="M 354 306v 16h 16v -8a 8 8, 0, 0, 0, -8 -8" transform="rotate(90,362,314)"/><rect x="354" y="338" width="16" height="16" transform="rotate(0,362,346)"/><rect x="354" y="402" width="16" height="16" transform="rotate(0,362,410)"/><rect x="354" y="418" width="16" height="16" transform="rotate(0,362,426)"/><rect x="354" y="434" width="16" height="16" transform="rotate(0,362,442)"/><path d="M 354 450v 16h 16v -8a 8 8, 0, 0, 0, -8 -8" transform="rotate(90,362,458)"/><path d="M 370 210v 16h 16v -8a 8 8, 0, 0, 0, -8 -8" transform="rotate(0,378,218)"/><path d="M 370 226v 16h 16v -8a 8 8, 0, 0, 0, -8 -8" transform="rotate(90,378,234)"/><path d="M 370 258v 16h 16v -8a 8 8, 0, 0, 0, -8 -8" transform="rotate(0,378,266)"/><path d="M 370 274v 16h 8a 8 8, 0, 0, 0, 0 -16" transform="rotate(90,378,282)"/><path d="M 370 322v 16h 16v -8a 8 8, 0, 0, 0, -8 -8" transform="rotate(-90,378,330)"/><rect x="370" y="338" width="16" height="16" transform="rotate(0,378,346)"/><circle cx="378" cy="378" r="8" transform="rotate(0,378,378)"/><rect x="370" y="402" width="16" height="16" transform="rotate(0,378,410)"/><path d="M 370 434v 16h 8a 8 8, 0, 0, 0, 0 -16" transform="rotate(0,378,442)"/><path d="M 386 146v 16h 8a 8 8, 0, 0, 0, 0 -16" transform="rotate(180,394,154)"/><path d="M 386 306v 16h 8a 8 8, 0, 0, 0, 0 -16" transform="rotate(-90,394,314)"/><rect x="386" y="322" width="16" height="16" transform="rotate(0,394,330)"/><rect x="386" y="338" width="16" height="16" transform="rotate(0,394,346)"/><rect x="386" y="402" width="16" height="16" transform="rotate(0,394,410)"/><path d="M 386 418v 16h 8a 8 8, 0, 0, 0, 0 -16" transform="rotate(90,394,426)"/><rect x="402" y="146" width="16" height="16" transform="rotate(0,410,154)"/><path d="M 402 178v 16h 8a 8 8, 0, 0, 0, 0 -16" transform="rotate(-90,410,186)"/><path d="M 402 194v 16h 16v -8a 8 8, 0, 0, 0, -8 -8" transform="rotate(180,410,202)"/><circle cx="410" cy="266" r="8" transform="rotate(0,410,266)"/><path d="M 402 290v 16h 8a 8 8, 0, 0, 0, 0 -16" transform="rotate(180,410,298)"/><path d="M 402 322v 16h 16v -8a 8 8, 0, 0, 0, -8 -8" transform="rotate(0,410,330)"/><rect x="402" y="338" width="16" height="16" transform="rotate(0,410,346)"/><rect x="402" y="354" width="16" height="16" transform="rotate(0,410,362)"/><rect x="402" y="370" width="16" height="16" transform="rotate(0,410,378)"/><rect x="402" y="386" width="16" height="16" transform="rotate(0,410,394)"/><path d="M 402 402v 16h 16v -8a 8 8, 0, 0, 0, -8 -8" transform="rotate(90,410,410)"/><path d="M 418 146v 16h 8a 8 8, 0, 0, 0, 0 -16" transform="rotate(0,426,154)"/><rect x="418" y="194" width="16" height="16" transform="rotate(0,426,202)"/><path d="M 418 210v 16h 8a 8 8, 0, 0, 0, 0 -16" transform="rotate(90,426,218)"/><circle cx="426" cy="250" r="8" transform="rotate(0,426,250)"/><rect x="418" y="290" width="16" height="16" transform="rotate(0,426,298)"/><path d="M 418 306v 16h 8a 8 8, 0, 0, 0, 0 -16" transform="rotate(90,426,314)"/><rect x="418" y="386" width="16" height="16" transform="rotate(0,426,394)"/><path d="M 418 434v 16h 8a 8 8, 0, 0, 0, 0 -16" transform="rotate(-90,426,442)"/><path d="M 418 450v 16h 16v -8a 8 8, 0, 0, 0, -8 -8" transform="rotate(180,426,458)"/><rect x="434" y="194" width="16" height="16" transform="rotate(0,442,202)"/><circle cx="442" cy="266" r="8" transform="rotate(0,442,266)"/><path d="M 434 290v 16h 8a 8 8, 0, 0, 0, 0 -16" transform="rotate(0,442,298)"/><path d="M 434 338v 16h 8a 8 8, 0, 0, 0, 0 -16" transform="rotate(-90,442,346)"/><path d="M 434 354v 16h 16v -8a 8 8, 0, 0, 0, -8 -8" transform="rotate(180,442,362)"/><path d="M 434 386v 16h 16v -8a 8 8, 0, 0, 0, -8 -8" transform="rotate(0,442,394)"/><path d="M 434 402v 16h 16v -8a 8 8, 0, 0, 0, -8 -8" transform="rotate(180,442,410)"/><path d="M 434 450v 16h 16v -8a 8 8, 0, 0, 0, -8 -8" transform="rotate(0,442,458)"/><path d="M 434 466v 16h 16v -8a 8 8, 0, 0, 0, -8 -8" transform="rotate(180,442,474)"/><circle cx="458" cy="154" r="8" transform="rotate(0,458,154)"/><path d="M 450 178v 16h 16v -8a 8 8, 0, 0, 0, -8 -8" transform="rotate(-90,458,186)"/><rect x="450" y="194" width="16" height="16" transform="rotate(0,458,202)"/><path d="M 450 210v 16h 16v -8a 8 8, 0, 0, 0, -8 -8" transform="rotate(180,458,218)"/><path d="M 450 242v 16h 8a 8 8, 0, 0, 0, 0 -16" transform="rotate(180,458,250)"/><circle cx="458" cy="282" r="8" transform="rotate(0,458,282)"/><circle cx="458" cy="314" r="8" transform="rotate(0,458,314)"/><rect x="450" y="354" width="16" height="16" transform="rotate(0,458,362)"/><rect x="450" y="402" width="16" height="16" transform="rotate(0,458,410)"/><rect x="450" y="418" width="16" height="16" transform="rotate(0,458,426)"/><path d="M 450 434v 16h 8a 8 8, 0, 0, 0, 0 -16" transform="rotate(90,458,442)"/><path d="M 450 466v 16h 8a 8 8, 0, 0, 0, 0 -16" transform="rotate(0,458,474)"/><path d="M 466 178v 16h 16v -8a 8 8, 0, 0, 0, -8 -8" transform="rotate(0,474,186)"/><rect x="466" y="194" width="16" height="16" transform="rotate(0,474,202)"/><path d="M 466 210v 16h 16v -8a 8 8, 0, 0, 0, -8 -8" transform="rotate(90,474,218)"/><path d="M 466 242v 16h 16v -8a 8 8, 0, 0, 0, -8 -8" transform="rotate(0,474,250)"/><path d="M 466 258v 16h 8a 8 8, 0, 0, 0, 0 -16" transform="rotate(90,474,266)"/><path d="M 466 322v 16h 8a 8 8, 0, 0, 0, 0 -16" transform="rotate(-90,474,330)"/><rect x="466" y="338" width="16" height="16" transform="rotate(0,474,346)"/><rect x="466" y="354" width="16" height="16" transform="rotate(0,474,362)"/><rect x="466" y="370" width="16" height="16" transform="rotate(0,474,378)"/><rect x="466" y="386" width="16" height="16" transform="rotate(0,474,394)"/><rect x="466" y="402" width="16" height="16" transform="rotate(0,474,410)"/><path d="M 466 418v 16h 16v -8a 8 8, 0, 0, 0, -8 -8" transform="rotate(90,474,426)"/></clipPath><clipPath id="clip-path-corners-square-color-0-0"><path clip-rule="evenodd" d="M 18 58v 32a 40 40, 0, 0, 0, 40 40h 32a 40 40, 0, 0, 0, 40 -40v -32a 40 40, 0, 0, 0, -40 -40h -32a 40 40, 0, 0, 0, -40 40M 58 34h 32a 24 24, 0, 0, 1, 24 24v 32a 24 24, 0, 0, 1, -24 24h -32a 24 24, 0, 0, 1, -24 -24v -32a 24 24, 0, 0, 1, 24 -24" transform="rotate(0,74,74)"/></clipPath><clipPath id="clip-path-corners-dot-color-0-0"><circle cx="74" cy="74" r="24" transform="rotate(0,74,74)"/></clipPath><clipPath id="clip-path-corners-square-color-1-0"><path clip-rule="evenodd" d="M 370 58v 32a 40 40, 0, 0, 0, 40 40h 32a 40 40, 0, 0, 0, 40 -40v -32a 40 40, 0, 0, 0, -40 -40h -32a 40 40, 0, 0, 0, -40 40M 410 34h 32a 24 24, 0, 0, 1, 24 24v 32a 24 24, 0, 0, 1, -24 24h -32a 24 24, 0, 0, 1, -24 -24v -32a 24 24, 0, 0, 1, 24 -24" transform="rotate(90,426,74)"/></clipPath><clipPath id="clip-path-corners-dot-color-1-0"><circle cx="426" cy="74" r="24" transform="rotate(90,426,74)"/></clipPath><clipPath id="clip-path-corners-square-color-0-1"><path clip-rule="evenodd" d="M 18 410v 32a 40 40, 0, 0, 0, 40 40h 32a 40 40, 0, 0, 0, 40 -40v -32a 40 40, 0, 0, 0, -40 -40h -32a 40 40, 0, 0, 0, -40 40M 58 386h 32a 24 24, 0, 0, 1, 24 24v 32a 24 24, 0, 0, 1, -24 24h -32a 24 24, 0, 0, 1, -24 -24v -32a 24 24, 0, 0, 1, 24 -24" transform="rotate(-90,74,426)"/></clipPath><clipPath id="clip-path-corners-dot-color-0-1"><circle cx="74" cy="426" r="24" transform="rotate(-90,74,426)"/></clipPath></defs><rect x="0" y="0" height="500" width="500" clip-path="url('#clip-path-background-color')" fill="#fff"/><rect x="0" y="0" height="500" width="500" clip-path="url('#clip-path-dot-color')" fill="#000000"/><rect x="18" y="18" height="112" width="112" clip-path="url('#clip-path-corners-square-color-0-0')" fill="#000000"/><rect x="50" y="50" height="48" width="48" clip-path="url('#clip-path-corners-dot-color-0-0')" fill="#000000"/><rect x="370" y="18" height="112" width="112" clip-path="url('#clip-path-corners-square-color-1-0')" fill="#000000"/><rect x="402" y="50" height="48" width="48" clip-path="url('#clip-path-corners-dot-color-1-0')" fill="#000000"/><rect x="18" y="370" height="112" width="112" clip-path="url('#clip-path-corners-square-color-0-1')" fill="#000000"/><rect x="50" y="402" height="48" width="48" clip-path="url('#clip-path-corners-dot-color-0-1')" fill="#000000"/></svg>